<?xml version="1.0" encoding="utf-8"?>
<!-- Generator: Adobe Illustrator 19.0.0, SVG Export Plug-In . SVG Version: 6.00 Build 0)  -->
<svg version="1.1" id="Layer_1" xmlns="http://www.w3.org/2000/svg" xmlns:xlink="http://www.w3.org/1999/xlink" x="0px" y="0px"
	 viewBox="-455 630.4 623.1 789.6" style="enable-background:new -455 630.4 623.1 789.6;" xml:space="preserve">
<style type="text/css">
	.st0{fill:#030303;}
</style>
<path id="XMLID_30_" class="st0" d="M125.6,1420c-29.5-17.5-61.4-24.6-93.7-30.2c-43.9-7.6-88.3-10.1-132.8-9
	c-49.8,1.2-99.3,5.7-147.5,19.7c-0.6,0.2-1.3,0.1-3.2,0.3c5.1-5.4,9.5-10.1,13.9-14.7c7.7-8,15.3-15.9,23-23.8
	c9.2-9.3,19-18.1,27.8-27.7c6.1-6.7,11.9-13.9,16-21.9c3.1-6.2,2.8-14.3-0.2-20.8c-4.9-10.6-11-20.6-16.9-30.7
	c-2.1-3.5-5.2-6.5-8-9.6c-6.2-6.8-12.3-13.7-18.8-20.2c-8.2-8.2-17.2-14.8-27.9-20c-12.6-6.1-25.4-6.1-38.4-5.3
	c-8.7,0.6-17.3,3.9-26,5.8c-7.2,1.5-14.4,2.7-21.6,4c-9.8,1.7-19.7,1.9-29.3-1.1c-3.7-1.1-6.7-4.3-10.4-5.4c-6.3-2-8.8-6.9-12-11.9
	c-3.5-5.5-4.2-11.4-3.2-17.2c2.5-13.8-0.5-25.9-9.3-36.7c-1.3-1.6-2.7-3.9-2.5-5.8c0.6-5.7-0.3-12.1,5.6-16.2
	c-4.6-4.1-9-7.9-13.3-11.8c-3.7-3.3-6.1-6.5-5.2-12.6c0.9-6.3,0.4-13.6-2.2-19.2c-2.1-4.6-6.3-9.4-13.2-10.4c-6.9-1-14-3-20.3-6.1
	c-5.5-2.6-9.3-7.9-9.9-14.5c-0.8-9.4,1.8-18.2,6.6-26.1c6-9.8,12.9-19,19.1-28.7c4.4-7,8.3-14.4,12.4-21.6c3-5.4,5.9-10.9,9-16.3
	c2.4-4.3-1.2-6.4-3.2-9.1c-1.3-1.7-2.4-3.5-4.1-6.1c4-0.2,6.3-0.3,9.7-0.5c-0.9-4.5-1.7-8.9-2.5-13.2c-2-11.4-3.8-22.8-5.9-34.1
	c-0.4-2.1-1.6-4.7-3.3-5.9c-12.4-9.1-21.5-21-28.3-34.4c-3.6-7.2-4.3-15.8-7.5-23.3c-3.5-8.3-2.4-16.8-2.9-25.2
	c-0.6-11,3.2-21,7.5-30.5c3.2-7,5.3-14.2,5.4-21.7c0-13.9,5.3-25.8,13.5-36.5c7.8-10.2,16.2-20,24-30.1c5.4-7,10.3-14.5,15.7-21.5
	c1.7-2.2,4.3-4.2,6.8-5.1c6.5-2.4,13.4-4,19.9-6.2c4.8-1.6,9.6-3.2,12.8-7.8c0.6-0.9,2.6-1.1,4-1.1c12-0.1,24-0.4,36,0.2
	c3.6,0.2,7.1,2.9,10.7,4.4c4.3,1.8,8.4,4,12.8,5.1c3.9,1,5.6,3.5,8,6.3c5.4,6.1,11.4,12.1,18.1,16.6c4.1,2.7,9.1-1.2,13.1-3.6
	c9-5.4,17.5-11.9,26.9-16.4c6.7-3.2,13.9-5.9,22-5.9c11.1,0,22-2.3,32.5-6.1c10.9-3.9,21.8-7.8,32.7-11.4
	c7.1-2.4,18.1,3.2,22.5,11.2c0.9,1.6,1.5,3.3,2.6,4.7c0.7,0.9,2,1.8,2.9,1.7c7.2-0.5,14.5-1.4,21.7-1.8c5.6-0.3,10.8,0.8,16,3.4
	c7.9,3.9,16.7,6,24.7,9.8c10.2,4.8,21.2,4.9,31.8,6.7c6.2,1,10.3,3.8,12,10.9c0.6,2.6-1.4,6.4,2.9,7.5c2.7,0.7,5.4,1.3,8.1,1.6
	c10.9,1.3,20.1,6.2,26.1,15.1c3.1,4.6,3.4,11,4.9,16.7c0.2,0.9,0.2,2,0.2,3c4.6-1.2,9-2.6,13.4-3.6c2.9-0.6,6-0.5,6.7-4.5
	c0-0.2,2.5-0.6,3.6-0.1c5.2,2.4,10.3,4.8,15.2,7.6c9.9,5.5,19.6,11.1,29.3,16.7c2.4,1.4,4.5,3.5,6.9,5c2.6,1.6,5.4,2.7,7.9,4.4
	c2.4,1.6,4.7,3.4,6.6,5.4c0.7,0.7,0.7,2.9,0.1,3.7c-2.4,3.1-1.6,5.8-0.3,9.1c2.1,5.4,3.6,11,5.3,16.5c0.6,1.8,1.5,3.7,1.7,5.6
	c0.1,1.8-0.3,3.9-1.2,5.4c-0.4,0.7-2.6,0.3-4.3,0.5c-2.3,7.8,2.4,14.1,7,20.4c5.5,7.5,11.3,14.9,16.3,22.7c2.1,3.3,2.6,7.6,4.1,11.4
	c2.8,7.4,5.2,14.8,4.4,22.8c-0.2,1.6-0.7,3.2-0.7,4.8c0,4.3,0.1,8.7,0.2,13c0.2,5,0.4,10,0.7,15.1c0.1,2.4,0.8,4.9,0.7,7.3
	c-0.5,12.2-1.6,24.3-7.8,35.3c-3.8,6.7-6.2,14.1-10.4,20.5c-6.2,9.5-16.2,14.8-26,20c-6.5,3.4-13.6,5.6-20.2,8.8
	c-1.6,0.8-3.1,3.2-3.4,5c-0.5,3.4-0.4,7-0.1,10.5c0.9,10.2-3,18.4-10.4,25.1c-2,1.8-4,3.6-6.1,5.4c2.1,3.5,3.8,6.6,5.8,9.5
	c2.5,3.9,2,7.4-0.4,11.3c-2.6,4-4.8,8.3-6.9,12.6c-2.9,6,3.5,14.2,10.7,14.5c8.6,0.3,12.3-1.9,16.3-9.9c0.6-1.3,2.3-2.9,3.4-2.8
	c1.2,0,2.7,1.6,3.5,2.9c2.9,4.7-1.3,8.6-1.9,12.9c-0.2,1.2-0.8,2.4-0.9,3.6c-0.5,4.3-0.5,8.6-1.4,12.8c-0.3,1.6-2.4,3.7-3.9,4
	c-7.9,1.4-15.8,2.2-23.8,3.2c-1.1,0.1-2.5-0.2-3.4,0.3c-6,3.3-12.4,2.6-18.8,2.9c-1.3,0.1-2.6,2-3.8,3.2c-0.4,0.4-0.3,1.4-0.7,1.8
	c-5.5,4.9-9.6,11.5-16.9,14.1c-1.1,0.4-2.4,1.1-3.2,0.8c-5.3-2-9.9,1.2-14.8,1.7c-4.6,0.5-9.4-0.6-14-1.7c-5.7-1.3-11.3-3-16.7-5.1
	c-5.2-2.1-10.2-4.9-16.7-8.1c4.7,6.9,8.6,12.6,12.6,18.3c5.5,8.1,11.1,16.1,16.5,24.3c6.3,9.3,12.5,18.6,18.7,28
	c4.6,7,8.9,14.1,13.4,21.2c5,8.1,10.4,16,15,24.3c3.9,7,6.7,14.5,10.2,21.7c2.1,4.3,4.6,8.4,6.8,12.7c4.4,8.9,8.7,17.9,12.9,27
	c3.8,8.1,8,16.1,10.8,24.6c3.3,9.7,9.3,17.8,13.9,26.7c6.9,13.5,11.6,27.8,13.6,43.1C120.3,1405,123.4,1412.4,125.6,1420z"/>
</svg>
