<?xml version="1.0" encoding="utf-8"?>
<!-- Generator: Adobe Illustrator 19.0.0, SVG Export Plug-In . SVG Version: 6.00 Build 0)  -->
<svg version="1.1" id="Layer_1" xmlns="http://www.w3.org/2000/svg" xmlns:xlink="http://www.w3.org/1999/xlink" x="0px" y="0px"
	 viewBox="0 0 159.5 225.5" style="enable-background:new 0 0 159.5 225.5;" xml:space="preserve">
<style type="text/css">
	.st0{fill:#030303;}
</style>
<path id="XMLID_24_" class="st0" d="M131.9,66c-0.2,17.1-5.2,32.4-14.6,46.5c-0.8,1.2-1.1,3.1-1.1,4.7c0.4,15.5,5.9,28.9,15.3,41.3
	c9,11.9,16.4,25,24.3,37.7c1.8,2.9,2.9,6.5,3.4,9.8c1.2,7.4-3.4,13.2-11,13.5c-4.2,0.2-8.6-0.6-12.8-1.5c-7-1.5-13.9-3.4-20.8-5.4
	c-6.8-1.9-13.4-1-20.2,0.8c-15.6,4-31.2,8.2-47,11.4c-6.4,1.3-13.3,0.6-19.9-0.4c-11.5-1.6-15.1-10.7-8.4-20.1
	c2.3-3.2,5.1-6.2,7.8-9.1c5.1-5.4,9.5-11,12-18.2c1.1-3.2,3.7-5.8,5.6-8.7c0.5-0.8,1-1.6,1.4-2.4c0.9-1.8,1.3-4.4,2.8-5.4
	c2.8-1.8,3.1-3.7,2.4-6.6c-2.4-9.1-5.1-11.6-14.5-12.6c-7.1-0.8-14.2-1.4-21.2-2.8c-6.8-1.3-8.4-5.2-6.4-11.8c0.6-1.8,0-4.5-1-6.2
	c-1.6-2.7-2.6-5-0.1-7.6c0.5-0.5,1.1-1.8,0.9-2.1c-3.2-4.1-2.7-8.6-1.9-13.3c0.1-0.7-1.6-2-2.6-2.6c-4.1-2.5-5.7-6.2-3.1-10.2
	c8.4-12.6,10.3-27.1,13.5-41.3c1.1-5,3.2-9.9,5.9-14.2c2.8-4.7,5.1-9,4.4-14.7c-0.5-3.9,6.4-10.2,10.4-11c3.4-0.6,6.6-2.4,10-2.7
	C63.8-1,82.1,0.1,99.2,7.7c5.8,2.6,10.8,7.8,15,12.8c7.4,9,13.4,19.1,16.1,30.7C131.4,56,131.4,61.1,131.9,66z"/>
</svg>
