<?xml version="1.0" encoding="utf-8"?>
<!-- Generator: Adobe Illustrator 19.0.0, SVG Export Plug-In . SVG Version: 6.00 Build 0)  -->
<svg version="1.1" id="Layer_1" xmlns="http://www.w3.org/2000/svg" xmlns:xlink="http://www.w3.org/1999/xlink" x="0px" y="0px"
	 viewBox="0 0 345 423.9" style="enable-background:new 0 0 345 423.9;" xml:space="preserve">
<style type="text/css">
	.st0{fill:#030303;}
</style>
<g id="XMLID_39_">
	<path id="XMLID_100_" class="st0" d="M241.6,273.6c0,0.1-0.1,0.2-0.1,0.4c-0.1-2-0.6-4.1-1.4-6.2c-1.1-3-2.1-6-2.9-9
		c-1.5-5.2,1.1-7.8,5.8-9c3.1-0.8,5.7,0.3,8.3,1.9c10.8,6.6,13.6,17.2,14.2,28.8c0.3,5.2,0.5,10.3,3.6,14.6
		c4.1,5.7,5.9,12.1,7.2,18.9c2.7,14.1,9.4,25.2,24,30.4c15.3,5.4,31.1-1.3,36.7-16.7c3.3-9.1,6.4-18.3,8-27.9c0-1.5,0-2.9,0-4.4
		c-1.4-5-4.7-7.6-9.9-7.4c-0.7,0-1.4,0.1-2,0.4c-0.6-0.2-0.8-2-2.1-0.8c0-0.4-0.2-0.5-0.5-1c-3.9-2.9-8.6-3.2-13.2-3.3
		c-8.8-0.3-13.3,3-16.3,11.4c-0.1,0.6-0.1,1.2,0,1.8c0,0,0,0,0.6,3c-0.6-3-0.9,1.5,0,0c0.8,3.4,0.6,6.9,0.5,10.3
		c-0.1,2.3,0.4,5.6-2.7,6c-2.4,0.4-3.5-2.4-4.3-4.3c-2.6-6.6-5.3-13.2-5.1-20.4c0.6-17.2-9.4-30.1-17.1-44c-0.2-0.4-0.7-0.6-1.2-0.9
		c-0.4-0.4-1-0.5-1.5-0.6c-0.9-1.7-2.7-2.5-4.1-3.6c-2.9-2.4-6.2-3.5-9.6-4.2c-1.8-0.9-3.7-1.3-5.5-0.7c-1.5-0.1-3-0.2-4.5-0.4
		c0,0,0,0,0,0c-0.2-5.1-1.3-10-2.8-14.9c-2.5-7.9-1.4-9.4,7.1-11.2c1.3-0.4,2.6-0.3,3.8,0c1.7,0.8,3.4,1.6,5.3,1.2
		c0.6,0.1,1.2,0.1,1.9,0c2.2-0.5,3.8-1.8,4.7-3.8c0-0.4-0.1-0.7-0.2-1.1c2.1-3.5-1.3-5.4-2.5-8c0-0.4,0.1-0.8,0.2-1.2
		c-1.3-7.3-6.9-12.8-8.3-20.1c-1.3-7.2-4.9-13.1-10.9-17.5c-2.9-2.1-5.1-4.9-3.4-8.7c1.7-3.8,5.2-3.7,8.8-3.5
		c11.7,0.7,23.1,2.9,34.7,4.3c4.2,0.5,7.9-0.5,9.7-4.7c1.7-4-0.7-6.8-3.4-9.5c-11.6-11.7-23.5-23.1-35.4-34.5c-3.8-3.7-6.2-8-7-13.3
		c-2.4-16.1-8.6-30.5-20.9-41.4c-8.3-7.4-14.1-17.5-25-21.9c-2.5-0.7-5.1-1-7.1-2.7c-1.4-1.2-2.1-2.6-1.4-4.4
		c0.1-0.3,0.2-0.5,0.4-0.8c1.3-0.7,1.9-2.1,2.5-3.5c0.3-0.2,0.5-0.5,0.8-0.7c0.4-0.5,0.6-1.1,0.8-1.8c0-0.3,0-0.5,0.1-0.8
		c0.7-2,0.4-3.9-0.9-5.7c-0.3-0.8-0.6-1.7-0.9-2.5c-1.8-3.4-5.8-1.9-8.3-3.9c-4.9,0-9.7,0-14.6,0c-6,1.8-12.3,2.7-17.1,7.4
		c-1.9,2.5-4.8,2.4-7.5,2.5c-3.6,0.7-7.4,0.7-10.6,2.9c0,0.1,0,0.2,0,0.4c-3.1-0.2-6.3-0.5-9.2,1.2l0,0c-0.8,0.1-1.6,0.2-2.4,0.2
		c-3-0.2-6.1-0.9-9.1-0.2c-0.7-0.2-1.3-0.6-1.9-1.1c-2.9-0.7-5.8-0.9-8.7,0.4c-0.4,0.3-0.7,0.6-0.9,1c-2.2-0.8-3.6,1.9-5.7,1.3
		c-1.4-0.1-2.7,0-3.8,0.8c-0.3-0.1-0.6-0.2-0.9-0.3c-2.8-0.3-4.7,1.2-6.1,3.3c-8,12.1-19.3,20.9-29.9,30.5
		C47.6,61.8,40,76.1,39.1,93.5c0.1,2.2-0.5,4.8,0.5,6.5c0,1.4,0,2.8,0.1,4.2c-0.3,0.3-0.6,0.6-0.8,1c-0.4,1-0.4,2,0,3.1
		c0.2,0.4,0.5,0.7,0.7,1.1c-1,8.4-2.4,16.7-0.2,25.1c-0.2,0.1-0.4,0.3-0.7,0.5c-2.4,14.8-8.8,27.8-17.9,39.6c-0.9,1.1-1.4,2.5-1.6,4
		c-0.3,0.8-0.1,1.7,0,2.7c-0.6,1.1-1.3,2.3-1.9,3.4c-0.2,0-0.3,0.1-0.5,0.1c-2.1,0.7-3.2,2.2-3.4,4.3c0,0.5-0.1,1-0.2,1.4
		c-0.6,0.7-1.3,1.4-1.9,2c-3.6,1.6-6.6,4.8-5.1,8.2c1.8,4,6.2,2.2,9.6,1c1.7-0.6,3.6-0.9,5.2-1.8c0.4,0,0.8,0,1.2-0.1
		c0.7-0.2,1.3-0.4,1.9-0.8c0.1-0.3,0.3-0.5,0.4-0.7c3.3-0.8,6.3-2.3,9.2-3.9c1,0,2,0.1,3,0.1c1.7-0.1,3.4-0.5,4.7-1.6
		c0.7-0.2,1.3-0.9,1.9-1.6c1.4-0.2,2.8-0.4,4.2-0.6c0.2,0.2,0.4,0.5,0.7,0.9c2.9,9.6,8.5,17.8,14.3,25.9c2.1,3,3.9,6.1,5.2,9.5
		c2.3,6.2,1.3,9.6-4.8,11.3c-10.4,2.8-14.8,10.8-18.7,19.5c-0.1,0.9-0.2,1.8-0.4,2.7c-0.3,0.5-0.7,1-1,1.5c-0.3,0.2-0.6,0.4-1,0.5
		c-0.9,0.5-1.4,1.2-1.5,2.3c0.1,0.2,0.1,0.4,0.2,0.5c-0.5,0.7-1,1.4-1.6,2.1c-1.1-0.1-2.3-0.2-2.3,0.8c-5.6,4.5-8.9,10.7-12.6,16.6
		c-4.2,6.7-6.4,14-4.1,22.1c0.1,0.9,0.3,1.8,0.5,2.6c-0.7,1.3-1.3,2.7-1.4,4.2c-0.2,0-0.3,0-0.5,0C10.6,325.2,3.8,337.3,0,350.8
		c0,1,0,1.9,0,2.9c1,3.9,4,5.6,7.3,7.3c6.9,3.6,14.4,4.5,21.9,5.6c-1.1,0.4,4.2-1.2,3.4,0.4c3.7-1.4,0.7,1.4,3.9,0.3
		c1,0,2-0.1,3-0.1c0.8-0.1,1.6-0.3,2.4-0.5c8.7-1.4,17.4-0.3,26.1-0.7c0.8,0,1.6,0,2.3,0c-0.7,0.6,3-0.3,2.3,0.3
		c3.4-0.1,2.3,0.3,5.5-0.4c2.1,0,4.1,0.1,6.2,0.8c19.3,2.8,35.6,11.5,50.3,24.2c12.7,10.9,26.2,20.2,41.3,25.9
		c-2.8-0.1-0.6-5.8-3.6-4.2c3.1,0,0.9,5.9,3.9,4.3c9.7,3.7,20,5.9,31.1,6.2c0,0.3,0.1,0.5,0.1,0.8c3.4,0,6.8,0,10.2,0
		c-0.1-0.3-0.1-0.6-0.1-0.9c5.6-3,4-8,1.7-11.5c-4.4-6.7-7.5-14.1-12-20.7c-0.4-0.3-0.9-0.6-1.3-0.8c-0.9-2.3-3-3-4.8-4.2
		c0-0.4,0-0.8,0.1-1.2c-0.5-6.4-1.7-12.4-7-17c-7.2-6.4-12.2-14.4-16.2-23.1c-0.4-1.2-0.6-2.3-0.8-3.5c0.8-2.1,1.6-4.2,0.5-6.3
		c0.2-0.5,0.3-1,0.5-1.4c2.7-6.2,5-12.8,0.6-18.8c-3.7-5.1-3.7-10.2-3.3-15.8c0.9-13.7,5.5-17.3,18.8-13.8c7.5,2,15,4.1,22.4,6.5
		c7.5,2.4,14.1-0.8,19.5-5.5c2.8-2.5,4.3-5.4,4.8-8.6 M11.4,193c0-0.1,0-0.2,0-0.3c0.1,0,0.1,0,0.2,0
		C11.5,192.8,11.4,192.9,11.4,193z M102.3,22.5c-3.1,0.7-3.1-1.8-3.6-3.8c0.7-0.3,1.5-0.7,2.2-1c2.1,0,4.3,0,6.4,0
		c0.1,0.2,0.1,0.3,0.2,0.5C108.1,22.4,104.6,22,102.3,22.5z M143.6,14.6c-0.1-0.7,0.4,0,0.3,0.4c-0.1,0-0.2-0.1-0.3-0.1
		C143.6,14.9,143.6,14.8,143.6,14.6z M187.3,12.6c-2.5,1.5-4.6,5.8-6.7,6.4s-7.3,1.7-10.9-1.2c-3.7-2.9-1.6-6-1.1-9.2
		s16.4-3.3,16.4-3.3C187.9,5.3,189.8,11.1,187.3,12.6z"/>
</g>
</svg>
