<?xml version="1.0" encoding="utf-8"?>
<!-- Generator: Adobe Illustrator 19.0.0, SVG Export Plug-In . SVG Version: 6.00 Build 0)  -->
<svg version="1.1" id="Layer_1" xmlns="http://www.w3.org/2000/svg" xmlns:xlink="http://www.w3.org/1999/xlink" x="0px" y="0px"
	 viewBox="0 0 138.2 164.8" style="enable-background:new 0 0 138.2 164.8;" xml:space="preserve">
<style type="text/css">
	.st0{fill:#030303;}
</style>
<path id="XMLID_8_" class="st0" d="M138,43.1c-0.9-5.4-4.8-7.7-9.5-9.1c-3.5-1-7.2-1.6-10.9-1.1c-4.1,0.6-5.4-1-5.9-4.9
	c-1.9-13-9.5-21.3-22-25.1c-7.2-2.2-14.7-3.2-22.2-3C49.5,0.4,38,9.6,34,26.9c-1.2,5-2,10.3-1.2,15.4c0.7,4.9-1.1,6.8-5.6,8.3
	C22.4,52,16.8,54,16.6,60.3c-0.3,6.5,5.3,8.7,10.3,10.6c2.7,1,2.8,2.4,2.5,4.8c-0.6,4.9-2.3,10.4,0.3,14.8c4.1,7,0.8,11.2-3.8,15.5
	c-1.6,1.5-2.9,3.2-4.4,4.8c-0.9,1-1.7,2-1.4,3.5c0.6,2.8-1,4.3-3.1,5.6c-2.4,1.5-4.6,3.6-7.1,4.5c-9.4,3.4-10.4,10.3-9.5,19
	c1.4,12.5,10.6,21.4,23.2,21.4c27.8,0,55.6,0,83.5,0c1.5,0,3,0,4.8,0c-1.6-6.7-3.2-12.9-4.7-19.2c-1.1-4.7-3.8-9.7-2.8-14
	c1.2-5.4,1.1-9.2-4.4-12.8c2.7-0.1,4.2-0.2,5.6-0.3c7.4-0.7,9.2-3.3,6.9-10.5c-0.5-1.4-0.6-2.5,0.5-3.6c3.4-3.4,3.9-7.8,3.1-12.1
	c-0.4-2.2-0.5-3.2,2-3.8c2.4-0.5,4.9-2.5,3.6-5c-2.8-5.6-1.2-11.9-3.2-17.4c-0.9-2.7,0-3.4,2-4.4c4.2-2,8.5-3.7,12.3-6.5
	C136.7,52.1,138.9,48.3,138,43.1z M116.5,74.9c-1.9-1-2.3-2-1.7-3.3c0.1-0.3,1-0.6,1.2-0.5C117.2,72.2,116.6,73.5,116.5,74.9z
	 M115.6,69.5c-0.6,0.4-1.4,0-1.5-0.7c-0.5-2,0.6-3.4,2.9-5.3C116.4,66.3,117.5,68.3,115.6,69.5z"/>
</svg>
